<?xml version="1.0" standalone="no"?>
<!DOCTYPE svg PUBLIC "-//W3C//DTD SVG 20010904//EN"
 "http://www.w3.org/TR/2001/REC-SVG-20010904/DTD/svg10.dtd">
<svg version="1.0" xmlns="http://www.w3.org/2000/svg"
 width="289.000000pt" height="289.000000pt" viewBox="0 0 289.000000 289.000000"
 preserveAspectRatio="xMidYMid meet">
<metadata>
Created by potrace 1.11, written by Peter Selinger 2001-2013
</metadata>
<g transform="translate(0.000000,289.000000) scale(0.100000,-0.100000)"
fill="#000000" stroke="none">
<path d="M1289 2886 c-2 -2 -26 -6 -54 -10 -27 -3 -66 -10 -85 -14 -19 -5 -39
-10 -45 -11 -32 -6 -98 -26 -155 -46 -415 -149 -739 -484 -879 -906 -52 -158
-70 -288 -66 -479 2 -91 6 -176 9 -190 20 -105 28 -135 51 -210 37 -115 92
-237 137 -302 10 -14 18 -29 18 -33 0 -21 153 -205 232 -280 220 -207 486
-337 788 -383 58 -9 342 -9 400 0 142 22 300 69 423 128 78 37 80 21 -13 125
-25 28 -74 84 -110 125 -36 41 -85 97 -110 125 -25 28 -75 84 -111 125 -37 41
-151 172 -254 290 -104 118 -191 217 -194 220 -3 3 -21 22 -39 43 -17 21 -32
32 -33 25 0 -7 -1 -154 -2 -326 l-2 -314 -24 -19 c-21 -17 -41 -19 -221 -19
-184 0 -199 1 -224 21 l-26 20 0 864 0 864 26 20 c25 20 40 21 224 21 180 0
199 -2 222 -19 l25 -20 -1 -295 c-1 -163 2 -296 5 -296 3 0 124 133 269 295
144 163 275 304 289 315 25 17 48 19 264 20 225 1 237 0 257 -20 11 -11 20
-27 20 -35 0 -12 -93 -132 -120 -155 -3 -3 -64 -72 -135 -155 -71 -82 -144
-166 -161 -185 -62 -70 -180 -206 -227 -262 l-48 -56 33 -39 c18 -21 35 -40
38 -43 9 -8 329 -386 389 -459 30 -36 57 -68 61 -71 3 -3 55 -63 115 -135 61
-71 118 -139 128 -150 10 -11 40 -46 65 -78 l47 -58 48 53 c149 163 283 440
322 663 4 22 9 50 11 62 13 70 18 263 9 343 -16 143 -29 203 -69 325 -120 358
-387 664 -729 836 -88 45 -258 104 -339 119 -29 6 -64 13 -78 16 -30 7 -364
16 -371 10z"/>
</g>
</svg>
